<svg width="19" height="20" viewBox="0 0 19 20" fill="none" xmlns="http://www.w3.org/2000/svg">
  <path fill-rule="evenodd" clip-rule="evenodd" d="M17.9382 5.66933C16.512 2.24469 13.1704 0.0100374 9.46066 0.000128852C5.46246 -0.0209255 1.90737 2.54006 0.661047 6.3391C-0.585272 10.1381 0.761902 14.3074 3.99559 16.6588C7.22927 19.0103 11.6107 19.0068 14.8407 16.6501L17.7207 19.5301C18.0135 19.8226 18.4878 19.8226 18.7807 19.5301C19.0731 19.2373 19.0731 18.7629 18.7807 18.4701L15.9907 15.6801C18.5968 13.04 19.3644 9.09396 17.9382 5.66933ZM16.6011 12.1694C15.4037 15.0551 12.585 16.9345 9.4607 16.9305V16.8905C5.22041 16.8851 1.77816 13.4607 1.7507 9.22045C1.74665 6.09619 3.62609 3.2775 6.51176 2.08002C9.39743 0.88255 12.7204 1.54241 14.9296 3.7516C17.1387 5.96079 17.7986 9.28372 16.6011 12.1694Z" fill="#222222"/>
</svg>
