<svg width="120" height="120" viewBox="0 0 120 120" fill="none" xmlns="http://www.w3.org/2000/svg">
<path d="M38.75 96.2495V84.9995C24.75 84.9995 23.7507 74.9995 23.75 54.9995C23.7493 34.9995 39.9797 23.7495 60 23.7495C80.0205 23.7495 96.25 34.9792 96.25 54.9995V66.2495M76.25 86.2495H73.75V96.2495L76.25 86.2495Z" stroke="#666666" stroke-width="7.5" stroke-linecap="round" stroke-linejoin="round"/>
<path d="M60 71.25C66.2132 71.25 71.25 66.2132 71.25 60C71.25 53.7868 66.2132 48.75 60 48.75C53.7868 48.75 48.75 53.7868 48.75 60C48.75 66.2132 53.7868 71.25 60 71.25Z" stroke="#666666" stroke-width="7.5" stroke-linecap="round" stroke-linejoin="round"/>
<path d="M60 47.5005V25.0005" stroke="#666666" stroke-width="7.5" stroke-linecap="round" stroke-linejoin="round"/>
<path d="M68.75 68.7495L96.25 81.2495" stroke="#666666" stroke-width="7.5" stroke-linecap="round" stroke-linejoin="round"/>
</svg>
