<svg width="120" height="120" viewBox="0 0 120 120" fill="none" xmlns="http://www.w3.org/2000/svg">
<path d="M60 56.2495C68.9746 56.2495 76.25 48.9741 76.25 39.9995C76.25 31.0249 68.9746 23.7495 60 23.7495C51.0254 23.7495 43.75 31.0249 43.75 39.9995C43.75 48.9741 51.0254 56.2495 60 56.2495Z" stroke="#666666" stroke-width="7.5" stroke-linecap="round" stroke-linejoin="round"/>
<path d="M61.2496 96.2505H34.7472C28.8498 96.2505 24.449 91.052 27.4538 85.9775C31.8119 78.6175 41.1963 70.0005 61.2496 70.0005" stroke="#666666" stroke-width="7.5" stroke-linecap="round" stroke-linejoin="round"/>
<path d="M100 85.7759C100 87.5 96.9828 96.5517 87.5 96.5517C78.0172 96.5517 75 87.5 75 85.7759C75 84.0517 78.0172 75 87.5 75C96.9828 75 100 84.0517 100 85.7759Z" stroke="#666666" stroke-width="4" stroke-linecap="round" stroke-linejoin="round"/>
<path d="M87.4999 89.6536C89.6424 89.6536 91.3792 87.9168 91.3792 85.7743C91.3792 83.6318 89.6424 81.895 87.4999 81.895C85.3574 81.895 83.6206 83.6318 83.6206 85.7743C83.6206 87.9168 85.3574 89.6536 87.4999 89.6536Z" stroke="#666666" stroke-width="3.5" stroke-linecap="round" stroke-linejoin="round"/>
</svg>
