<svg width="120" height="120" viewBox="0 0 120 120" fill="none" xmlns="http://www.w3.org/2000/svg">
<path d="M32.4995 29.9995C32.4995 31.3802 31.3802 32.4995 29.9995 32.4995C28.6188 32.4995 27.4995 31.3802 27.4995 29.9995C27.4995 28.6188 28.6188 27.4995 29.9995 27.4995C31.3802 27.4995 32.4995 28.6188 32.4995 29.9995Z" stroke="#666666" stroke-width="5" stroke-linecap="round" stroke-linejoin="round"/>
<path d="M32.4995 59.9995C32.4995 61.38 31.3802 62.4995 29.9995 62.4995C28.6188 62.4995 27.4995 61.38 27.4995 59.9995C27.4995 58.619 28.6188 57.4995 29.9995 57.4995C31.3802 57.4995 32.4995 58.619 32.4995 59.9995Z" stroke="#666666" stroke-width="5" stroke-linecap="round" stroke-linejoin="round"/>
<path d="M32.4995 89.9995C32.4995 91.38 31.3802 92.4995 29.9995 92.4995C28.6188 92.4995 27.4995 91.38 27.4995 89.9995C27.4995 88.619 28.6188 87.4995 29.9995 87.4995C31.3802 87.4995 32.4995 88.619 32.4995 89.9995Z" stroke="#666666" stroke-width="5" stroke-linecap="round" stroke-linejoin="round"/>
<path d="M48.75 30H91.25" stroke="#666666" stroke-width="7.5" stroke-linecap="round" stroke-linejoin="round"/>
<path d="M48.75 60H91.25" stroke="#666666" stroke-width="7.5" stroke-linecap="round" stroke-linejoin="round"/>
<path d="M48.75 90H91.25" stroke="#666666" stroke-width="7.5" stroke-linecap="round" stroke-linejoin="round"/>
</svg>
