<svg width="120" height="120" viewBox="0 0 120 120" fill="none" xmlns="http://www.w3.org/2000/svg">
<path d="M34.999 66.25C38.4508 66.25 41.249 63.4518 41.249 60C41.249 56.5482 38.4508 53.75 34.999 53.75C31.5472 53.75 28.749 56.5482 28.749 60C28.749 63.4518 31.5472 66.25 34.999 66.25Z" stroke="#666666" stroke-width="6" stroke-linecap="round" stroke-linejoin="round"/>
<path d="M59.9995 66.25C63.4513 66.25 66.2495 63.4518 66.2495 60C66.2495 56.5482 63.4513 53.75 59.9995 53.75C56.5477 53.75 53.7495 56.5482 53.7495 60C53.7495 63.4518 56.5477 66.25 59.9995 66.25Z" stroke="#666666" stroke-width="6" stroke-linecap="round" stroke-linejoin="round"/>
<path d="M46.249 46.2505C49.7008 46.2505 52.499 43.4523 52.499 40.0005C52.499 36.5487 49.7008 33.7505 46.249 33.7505C42.7972 33.7505 39.999 36.5487 39.999 40.0005C39.999 43.4523 42.7972 46.2505 46.249 46.2505Z" stroke="#666666" stroke-width="6" stroke-linecap="round" stroke-linejoin="round"/>
<path d="M73.75 46.2505C77.2018 46.2505 80 43.4523 80 40.0005C80 36.5487 77.2018 33.7505 73.75 33.7505C70.2982 33.7505 67.5 36.5487 67.5 40.0005C67.5 43.4523 70.2982 46.2505 73.75 46.2505Z" stroke="#666666" stroke-width="6" stroke-linecap="round" stroke-linejoin="round"/>
<path d="M85 66.25C88.4518 66.25 91.25 63.4518 91.25 60C91.25 56.5482 88.4518 53.75 85 53.75C81.5482 53.75 78.75 56.5482 78.75 60C78.75 63.4518 81.5482 66.25 85 66.25Z" stroke="#666666" stroke-width="6" stroke-linecap="round" stroke-linejoin="round"/>
<path d="M47.4995 86.2495C47.4995 86.2495 46.2496 73.7495 34.9995 73.7495C23.7495 73.7495 23.7495 86.2495 23.7495 86.2495" stroke="#666666" stroke-width="6" stroke-linecap="round" stroke-linejoin="round"/>
<path d="M72.499 86.2495C72.499 86.2495 71.249 73.7495 59.999 73.7495C48.749 73.7495 47.499 86.2495 47.499 86.2495" stroke="#666666" stroke-width="6" stroke-linecap="round" stroke-linejoin="round"/>
<path d="M96.2495 86.2495C96.2495 86.2495 96.2495 73.7495 84.9995 73.7495C73.7495 73.7495 72.4995 86.2495 72.4995 86.2495" stroke="#666666" stroke-width="6" stroke-linecap="round" stroke-linejoin="round"/>
</svg>
