<svg width="120" height="120" viewBox="0 0 120 120" fill="none" xmlns="http://www.w3.org/2000/svg">
<path d="M33.751 96.251H86.2508C91.7738 96.251 96.2508 91.774 96.2508 86.251V40.9161C96.2508 39.4886 95.9453 38.0776 95.3548 36.778L92.6658 30.8619C91.0428 27.292 87.4833 25 83.5618 25H36.4401C32.5187 25 28.9592 27.2921 27.3365 30.862L24.6473 36.778C24.0566 38.0776 23.751 39.4886 23.751 40.9161V86.251C23.751 91.774 28.2282 96.251 33.751 96.251Z" stroke="#666666" stroke-width="7.5" stroke-linecap="round" stroke-linejoin="round"/>
<path d="M47.5 38.75C47.5 44.9632 42.5 51.25 35 51.25C27.5 51.25 23.75 44.9632 23.75 38.75" stroke="#666666" stroke-width="7.5" stroke-linecap="round" stroke-linejoin="round"/>
<path d="M96.25 38.75C96.25 44.9632 92.5 51.25 85 51.25C77.5 51.25 72.5 44.9632 72.5 38.75" stroke="#666666" stroke-width="7.5" stroke-linecap="round" stroke-linejoin="round"/>
<path d="M72.5 38.75C72.5 44.9632 67.5 51.25 60 51.25C52.5 51.25 47.5 44.9632 47.5 38.75" stroke="#666666" stroke-width="7.5" stroke-linecap="round" stroke-linejoin="round"/>
<path d="M48.7476 78.7463C48.7476 73.2233 53.2249 68.7463 58.7474 68.7463H61.2474C66.7704 68.7463 71.2474 73.2233 71.2474 78.7463V96.2463H48.7476V78.7463Z" stroke="#666666" stroke-width="7.5" stroke-linecap="round" stroke-linejoin="round"/>
</svg>
