<svg width="120" height="120" viewBox="0 0 120 120" fill="none" xmlns="http://www.w3.org/2000/svg">
<path d="M29.403 38.5212L31.0333 41.8982L29.403 38.5212ZM60.0005 23.75L61.631 20.3729C60.601 19.8757 59.4 19.8757 58.37 20.3729L60.0005 23.75ZM90.598 38.5212L92.2285 35.1441L90.598 38.5212ZM92.5005 96.25C92.5005 98.321 94.1795 100 96.2505 100C98.3215 100 100 98.321 100 96.25H92.5005ZM20.0005 96.25C20.0005 98.321 21.6794 100 23.7505 100C25.8215 100 27.5005 98.321 27.5005 96.25H20.0005ZM31.0333 41.8982L61.631 27.127L58.37 20.3729L27.7727 35.1441L31.0333 41.8982ZM58.37 27.127L88.9675 41.8982L92.2285 35.1441L61.631 20.3729L58.37 27.127ZM92.5005 47.5267V96.25H100V47.5267H92.5005ZM27.5005 96.25V47.5267H20.0005V96.25H27.5005ZM88.9675 41.8982C91.128 42.941 92.5005 45.1281 92.5005 47.5267H100C100 42.2497 96.9805 37.4383 92.2285 35.1441L88.9675 41.8982ZM27.7727 35.1441C23.0205 37.4383 20.0005 42.2497 20.0005 47.5267H27.5005C27.5005 45.1281 28.8732 42.941 31.0333 41.8982L27.7727 35.1441Z" fill="#666666"/>
<path d="M81.2505 96.25V100C83.3215 100 85.0005 98.321 85.0005 96.25H81.2505ZM38.7505 96.25H35.0005C35.0005 98.321 36.6794 100 38.7505 100V96.25ZM77.5005 68.75V96.25H85.0005V68.75H77.5005ZM42.5005 96.25V68.75H35.0005V96.25H42.5005ZM38.7505 100H81.2505V92.5H38.7505V100ZM76.2505 67.5C76.941 67.5 77.5005 68.0595 77.5005 68.75H85.0005C85.0005 63.9175 81.083 60 76.2505 60V67.5ZM43.7505 60C38.918 60 35.0005 63.9175 35.0005 68.75H42.5005C42.5005 68.0595 43.0601 67.5 43.7505 67.5V60ZM43.7505 67.5H76.2505V60H43.7505V67.5Z" fill="#666666"/>
</svg>
