<svg width="37" height="36" viewBox="0 0 37 36" fill="none" xmlns="http://www.w3.org/2000/svg">
<path fill-rule="evenodd" clip-rule="evenodd" d="M9.5 6.76501H27.5C30.8137 6.76501 33.5 9.45131 33.5 12.765V19.155C33.5 22.4687 30.8137 25.155 27.5 25.155H9.5C6.18629 25.155 3.5 22.4687 3.5 19.155V12.765C3.5 9.45131 6.18629 6.76501 9.5 6.76501ZM27.5 22.65C29.4302 22.65 30.995 21.0852 30.995 19.155V12.765C30.995 10.8348 29.4302 9.27001 27.5 9.27001H9.5C7.56976 9.27001 6.005 10.8348 6.005 12.765V19.155C6.005 21.0852 7.56976 22.65 9.5 22.65H27.5Z" fill="#222222"/>
<path d="M26.75 28.11H10.25C9.62868 28.11 9.125 28.6137 9.125 29.235C9.125 29.8563 9.62868 30.36 10.25 30.36H26.75C27.3713 30.36 27.875 29.8563 27.875 29.235C27.875 28.6137 27.3713 28.11 26.75 28.11Z" fill="#222222"/>
</svg>
